# xmcd
#
# Track frame offsets: 
#        150
#        15537
#        32275
#        48925
#        67162
#        86750
#        107612
#        123175
#        139550
#        160050
#        177900
#        190237
#        207012
#        227362
#        245650
#        263162
#
# Disc length: 3621 seconds
#
# Revision: 7
# Processed by: cddbd v1.5.2PL0 Copyright (c) Steve Scherf et al.
# Submitted via: ExactAudioCopyFreeDBPlugin 1.0
#
DISCID=c90e2310
DTITLE=古巨基 - 第二最愛
DYEAR=1996
DGENRE=Pop
TTITLE0=第二最愛
TTITLE1=有心
TTITLE2=其實我...我...我
TTITLE3=笑說想
TTITLE4=妳是陽光空氣
TTITLE5=愛的解釋
TTITLE6=順風車
TTITLE7=藍天與白雲
TTITLE8=每個日出
TTITLE9=感情真相
TTITLE10=親親我好嗎
TTITLE11=愛是憑直覺
TTITLE12=晨曦
TTITLE13=想說笑
TTITLE14=對你始終痴心一往
TTITLE15=Oh! Baby (Piano Version)
EXTD=
EXTT0=
EXTT1=
EXTT2=
EXTT3=
EXTT4=
EXTT5=
EXTT6=
EXTT7=
EXTT8=
EXTT9=
EXTT10=
EXTT11=
EXTT12=
EXTT13=
EXTT14=
EXTT15=
PLAYORDER=
